<svg width="92" height="93" viewBox="0 0 92 93" fill="none" xmlns="http://www.w3.org/2000/svg">
<g filter="url(#filter0_d_3_68)">
<ellipse cx="46" cy="42.5" rx="42" ry="42.5" fill="white"/>
</g>
<rect x="62" y="2" width="24" height="14" fill="#FF0000"/>
<path d="M73.2273 9.18182C73.2273 10.4091 73.0057 11.4697 72.5625 12.3636C72.1193 13.2576 71.5114 13.947 70.7386 14.4318C69.9659 14.9167 69.0833 15.1591 68.0909 15.1591C67.0985 15.1591 66.2159 14.9167 65.4432 14.4318C64.6705 13.947 64.0625 13.2576 63.6193 12.3636C63.1761 11.4697 62.9545 10.4091 62.9545 9.18182C62.9545 7.95455 63.1761 6.89394 63.6193 6C64.0625 5.10606 64.6705 4.41667 65.4432 3.93182C66.2159 3.44697 67.0985 3.20455 68.0909 3.20455C69.0833 3.20455 69.9659 3.44697 70.7386 3.93182C71.5114 4.41667 72.1193 5.10606 72.5625 6C73.0057 6.89394 73.2273 7.95455 73.2273 9.18182ZM71.8636 9.18182C71.8636 8.17424 71.6951 7.32386 71.358 6.63068C71.0246 5.9375 70.572 5.41288 70 5.05682C69.4318 4.70076 68.7955 4.52273 68.0909 4.52273C67.3864 4.52273 66.7481 4.70076 66.1761 5.05682C65.608 5.41288 65.1553 5.9375 64.8182 6.63068C64.4848 7.32386 64.3182 8.17424 64.3182 9.18182C64.3182 10.1894 64.4848 11.0398 64.8182 11.733C65.1553 12.4261 65.608 12.9508 66.1761 13.3068C66.7481 13.6629 67.3864 13.8409 68.0909 13.8409C68.7955 13.8409 69.4318 13.6629 70 13.3068C70.572 12.9508 71.0246 12.4261 71.358 11.733C71.6951 11.0398 71.8636 10.1894 71.8636 9.18182ZM83.5511 7C83.4261 6.61742 83.2614 6.27462 83.0568 5.97159C82.8561 5.66477 82.6155 5.40341 82.3352 5.1875C82.0587 4.97159 81.7443 4.80682 81.392 4.69318C81.0398 4.57955 80.6534 4.52273 80.233 4.52273C79.5436 4.52273 78.9167 4.70076 78.3523 5.05682C77.7879 5.41288 77.339 5.9375 77.0057 6.63068C76.6723 7.32386 76.5057 8.17424 76.5057 9.18182C76.5057 10.1894 76.6742 11.0398 77.0114 11.733C77.3485 12.4261 77.8049 12.9508 78.3807 13.3068C78.9564 13.6629 79.6042 13.8409 80.3239 13.8409C80.9905 13.8409 81.5777 13.6989 82.0852 13.4148C82.5966 13.1269 82.9943 12.7216 83.2784 12.1989C83.5663 11.6723 83.7102 11.053 83.7102 10.3409L84.142 10.4318H80.642V9.18182H85.0739V10.4318C85.0739 11.3902 84.8693 12.2235 84.4602 12.9318C84.0549 13.6402 83.4943 14.1894 82.7784 14.5795C82.0663 14.9659 81.2481 15.1591 80.3239 15.1591C79.2936 15.1591 78.3883 14.9167 77.608 14.4318C76.8314 13.947 76.2254 13.2576 75.7898 12.3636C75.358 11.4697 75.142 10.4091 75.142 9.18182C75.142 8.26136 75.2652 7.43371 75.5114 6.69886C75.7614 5.96023 76.1136 5.33144 76.5682 4.8125C77.0227 4.29356 77.5606 3.89583 78.1818 3.61932C78.803 3.3428 79.4867 3.20455 80.233 3.20455C80.8466 3.20455 81.4186 3.29735 81.9489 3.48295C82.483 3.66477 82.9583 3.92424 83.375 4.26136C83.7955 4.5947 84.1458 4.99432 84.4261 5.46023C84.7064 5.92235 84.8996 6.43561 85.0057 7H83.5511Z" fill="white"/>
<defs>
<filter id="filter0_d_3_68" x="0" y="0" width="92" height="93" filterUnits="userSpaceOnUse" color-interpolation-filters="sRGB">
<feFlood flood-opacity="0" result="BackgroundImageFix"/>
<feColorMatrix in="SourceAlpha" type="matrix" values="0 0 0 0 0 0 0 0 0 0 0 0 0 0 0 0 0 0 127 0" result="hardAlpha"/>
<feOffset dy="4"/>
<feGaussianBlur stdDeviation="2"/>
<feComposite in2="hardAlpha" operator="out"/>
<feColorMatrix type="matrix" values="0 0 0 0 0 0 0 0 0 0 0 0 0 0 0 0 0 0 0.25 0"/>
<feBlend mode="normal" in2="BackgroundImageFix" result="effect1_dropShadow_3_68"/>
<feBlend mode="normal" in="SourceGraphic" in2="effect1_dropShadow_3_68" result="shape"/>
</filter>
</defs>
</svg>
