<svg width="85" height="85" viewBox="0 0 85 85" fill="none" xmlns="http://www.w3.org/2000/svg">
<ellipse cx="42" cy="42.5" rx="42" ry="42.5" fill="white"/>
<rect x="62" y="56" width="22" height="29" fill="#0000FF"/>
<path d="M71.9393 84.0607C72.5251 84.6464 73.4749 84.6464 74.0607 84.0607L83.6066 74.5147C84.1924 73.9289 84.1924 72.9792 83.6066 72.3934C83.0208 71.8076 82.0711 71.8076 81.4853 72.3934L73 80.8787L64.5147 72.3934C63.9289 71.8076 62.9792 71.8076 62.3934 72.3934C61.8076 72.9792 61.8076 73.9289 62.3934 74.5147L71.9393 84.0607ZM71.5 56L71.5 83L74.5 83L74.5 56L71.5 56Z" fill="white"/>
</svg>
