<svg width="84" height="85" viewBox="0 0 84 85" fill="none" xmlns="http://www.w3.org/2000/svg">
<ellipse cx="42" cy="42.5" rx="42" ry="42.5" fill="#202021"/>
<rect x="58" y="2" width="24" height="14" fill="#FF0000"/>
<path d="M69.2273 9.18182C69.2273 10.4091 69.0057 11.4697 68.5625 12.3636C68.1193 13.2576 67.5114 13.947 66.7386 14.4318C65.9659 14.9167 65.0833 15.1591 64.0909 15.1591C63.0985 15.1591 62.2159 14.9167 61.4432 14.4318C60.6705 13.947 60.0625 13.2576 59.6193 12.3636C59.1761 11.4697 58.9545 10.4091 58.9545 9.18182C58.9545 7.95455 59.1761 6.89394 59.6193 6C60.0625 5.10606 60.6705 4.41667 61.4432 3.93182C62.2159 3.44697 63.0985 3.20455 64.0909 3.20455C65.0833 3.20455 65.9659 3.44697 66.7386 3.93182C67.5114 4.41667 68.1193 5.10606 68.5625 6C69.0057 6.89394 69.2273 7.95455 69.2273 9.18182ZM67.8636 9.18182C67.8636 8.17424 67.6951 7.32386 67.358 6.63068C67.0246 5.9375 66.572 5.41288 66 5.05682C65.4318 4.70076 64.7955 4.52273 64.0909 4.52273C63.3864 4.52273 62.7481 4.70076 62.1761 5.05682C61.608 5.41288 61.1553 5.9375 60.8182 6.63068C60.4848 7.32386 60.3182 8.17424 60.3182 9.18182C60.3182 10.1894 60.4848 11.0398 60.8182 11.733C61.1553 12.4261 61.608 12.9508 62.1761 13.3068C62.7481 13.6629 63.3864 13.8409 64.0909 13.8409C64.7955 13.8409 65.4318 13.6629 66 13.3068C66.572 12.9508 67.0246 12.4261 67.358 11.733C67.6951 11.0398 67.8636 10.1894 67.8636 9.18182ZM79.5511 7C79.4261 6.61742 79.2614 6.27462 79.0568 5.97159C78.8561 5.66477 78.6155 5.40341 78.3352 5.1875C78.0587 4.97159 77.7443 4.80682 77.392 4.69318C77.0398 4.57955 76.6534 4.52273 76.233 4.52273C75.5436 4.52273 74.9167 4.70076 74.3523 5.05682C73.7879 5.41288 73.339 5.9375 73.0057 6.63068C72.6723 7.32386 72.5057 8.17424 72.5057 9.18182C72.5057 10.1894 72.6742 11.0398 73.0114 11.733C73.3485 12.4261 73.8049 12.9508 74.3807 13.3068C74.9564 13.6629 75.6042 13.8409 76.3239 13.8409C76.9905 13.8409 77.5777 13.6989 78.0852 13.4148C78.5966 13.1269 78.9943 12.7216 79.2784 12.1989C79.5663 11.6723 79.7102 11.053 79.7102 10.3409L80.142 10.4318H76.642V9.18182H81.0739V10.4318C81.0739 11.3902 80.8693 12.2235 80.4602 12.9318C80.0549 13.6402 79.4943 14.1894 78.7784 14.5795C78.0663 14.9659 77.2481 15.1591 76.3239 15.1591C75.2936 15.1591 74.3883 14.9167 73.608 14.4318C72.8314 13.947 72.2254 13.2576 71.7898 12.3636C71.358 11.4697 71.142 10.4091 71.142 9.18182C71.142 8.26136 71.2652 7.43371 71.5114 6.69886C71.7614 5.96023 72.1136 5.33144 72.5682 4.8125C73.0227 4.29356 73.5606 3.89583 74.1818 3.61932C74.803 3.3428 75.4867 3.20455 76.233 3.20455C76.8466 3.20455 77.4186 3.29735 77.9489 3.48295C78.483 3.66477 78.9583 3.92424 79.375 4.26136C79.7955 4.5947 80.1458 4.99432 80.4261 5.46023C80.7064 5.92235 80.8996 6.43561 81.0057 7H79.5511Z" fill="white"/>
</svg>
